<svg width="80" height="44" viewBox="0 0 80 44" fill="none" xmlns="http://www.w3.org/2000/svg">
<rect width="80" height="44" rx="2" fill="#95959E"/>
<path d="M32 25.8889V28.2222C32 28.6518 32.3358 29 32.75 29H43.25C43.6642 29 44 28.6518 44 28.2222V25.8889C44 24.1707 42.6568 22.7778 41 22.7778H35C33.3431 22.7778 32 24.1707 32 25.8889ZM41 18.1111C41 19.8293 39.6568 21.2222 38 21.2222C36.3431 21.2222 35 19.8293 35 18.1111C35 16.3929 36.3431 15 38 15C39.6568 15 41 16.3929 41 18.1111Z" fill="#333244"/>
</svg>
